<svg width="30" height="20" viewBox="0 0 51 34" fill="none" xmlns="http://www.w3.org/2000/svg">
<path d="M2.83334 34C2.03056 34 1.35718 33.728 0.813176 33.184C0.269176 32.64 -0.00187908 31.9675 9.80392e-06 31.1667C9.80392e-06 30.3639 0.27201 29.6905 0.81601 29.1465C1.36001 28.6025 2.03245 28.3314 2.83334 28.3333H48.1667C48.9694 28.3333 49.6428 28.6053 50.1868 29.1493C50.7308 29.6933 51.0019 30.3658 51 31.1667C51 31.9694 50.728 32.6428 50.184 33.1868C49.64 33.7308 48.9675 34.0019 48.1667 34H2.83334ZM2.83334 19.8333C2.03056 19.8333 1.35718 19.5613 0.813176 19.0173C0.269176 18.4733 -0.00187908 17.8009 9.80392e-06 17C9.80392e-06 16.1972 0.27201 15.5238 0.81601 14.9798C1.36001 14.4358 2.03245 14.1648 2.83334 14.1667H48.1667C48.9694 14.1667 49.6428 14.4387 50.1868 14.9827C50.7308 15.5267 51.0019 16.1991 51 17C51 17.8028 50.728 18.4762 50.184 19.0202C49.64 19.5642 48.9675 19.8352 48.1667 19.8333H2.83334ZM2.83334 5.66667C2.03056 5.66667 1.35718 5.39467 0.813176 4.85067C0.269176 4.30667 -0.00187908 3.63423 9.80392e-06 2.83334C9.80392e-06 2.03056 0.27201 1.35718 0.81601 0.813177C1.36001 0.269177 2.03245 -0.00187908 2.83334 9.8039e-06H48.1667C48.9694 9.8039e-06 49.6428 0.27201 50.1868 0.81601C50.7308 1.36001 51.0019 2.03245 51 2.83334C51 3.63612 50.728 4.30951 50.184 4.85351C49.64 5.39751 48.9675 5.66856 48.1667 5.66667H2.83334Z" fill="black"/>
</svg>
